<svg width="43" height="50" viewBox="0 0 43 50" fill="none" xmlns="http://www.w3.org/2000/svg">
<path fill-rule="evenodd" clip-rule="evenodd" d="M42.3751 36.6543C41.2198 39.2213 40.6536 40.3798 39.1812 42.6515C37.0973 45.8318 34.1752 49.7845 30.5283 49.8072C27.2892 49.8299 26.4737 47.6946 22.0793 47.7173C17.7076 47.74 16.7789 49.8299 13.5624 49.8072C9.93813 49.7845 7.152 46.1953 5.06806 43.015C-0.753371 34.1328 -1.36496 23.7059 2.23663 18.163C4.79625 14.2331 8.80556 11.916 12.5884 11.916C16.4391 11.916 18.8628 14.0286 22.034 14.0286C25.1146 14.0286 26.9947 11.916 31.4571 11.916C34.8321 11.916 38.3884 13.756 40.9254 16.9363C32.6123 21.5478 33.9714 33.474 42.3751 36.6543Z" fill="#121212"/>
<path fill-rule="evenodd" clip-rule="evenodd" d="M29.3425 8.41737C30.9508 6.32745 32.1966 3.39701 31.7436 0.398422C29.0934 0.580155 26.0128 2.26118 24.2007 4.46469C22.5697 6.46375 21.2107 9.4169 21.7316 12.3019C24.6084 12.3701 27.5984 10.6436 29.3425 8.41737Z" fill="#121212"/>
</svg>
