<svg width="28" height="24" viewBox="0 0 28 24" fill="none" xmlns="http://www.w3.org/2000/svg">
<path d="M5.09689 16.8024C6.25593 16.8024 7.1966 17.7432 7.1966 18.9024V21.9C7.1966 22.457 6.97538 22.9911 6.58161 23.3849C6.18784 23.7787 5.65377 24 5.09689 24H2.09971C1.54283 24 1.00876 23.7787 0.614991 23.3849C0.221219 22.9911 0 22.457 0 21.9V18.9024C0 17.7432 0.94067 16.8024 2.09971 16.8024H5.09689ZM5.09689 18.6024H2.09971C2.02016 18.6024 1.94386 18.634 1.88761 18.6903C1.83135 18.7465 1.79975 18.8228 1.79975 18.9024V21.9C1.79975 22.0656 1.93413 22.2 2.09971 22.2H5.09689C5.17645 22.2 5.25274 22.1684 5.309 22.1121C5.36525 22.0559 5.39685 21.9796 5.39685 21.9V18.9024C5.39685 18.8228 5.36525 18.7465 5.309 18.6903C5.25274 18.634 5.17645 18.6024 5.09689 18.6024ZM9.29631 19.2H27.1004C27.3284 19.2001 27.5479 19.2867 27.7145 19.4424C27.8811 19.598 27.9824 19.8112 27.9979 20.0387C28.0134 20.2662 27.9421 20.4911 27.7982 20.668C27.6543 20.8448 27.4487 20.9605 27.2228 20.9916L27.1004 21H9.29631C9.06832 20.9999 8.84884 20.9133 8.68225 20.7576C8.51565 20.602 8.41435 20.3888 8.39881 20.1613C8.38327 19.9338 8.45465 19.7089 8.59853 19.532C8.74241 19.3552 8.94806 19.2395 9.17393 19.2084L9.29631 19.2ZM5.09689 8.4012C6.25593 8.4012 7.1966 9.342 7.1966 10.5012V13.4988C7.1966 14.0558 6.97538 14.5899 6.58161 14.9837C6.18784 15.3776 5.65377 15.5988 5.09689 15.5988H2.09971C1.54283 15.5988 1.00876 15.3776 0.614991 14.9837C0.221219 14.5899 0 14.0558 0 13.4988V10.5C0 9.3408 0.94067 8.4 2.09971 8.4H5.09689V8.4012ZM5.09689 10.2012H2.09971C2.02016 10.2012 1.94386 10.2328 1.88761 10.2891C1.83135 10.3453 1.79975 10.4216 1.79975 10.5012V13.4988C1.79975 13.6644 1.93413 13.7988 2.09971 13.7988H5.09689C5.17645 13.7988 5.25274 13.7672 5.309 13.7109C5.36525 13.6547 5.39685 13.5784 5.39685 13.4988V10.5C5.39685 10.4204 5.36525 10.3441 5.309 10.2879C5.25274 10.2316 5.17645 10.2 5.09689 10.2V10.2012ZM9.29631 10.8H27.1004C27.3284 10.8001 27.5479 10.8867 27.7145 11.0424C27.8811 11.198 27.9824 11.4112 27.9979 11.6387C28.0134 11.8662 27.9421 12.0911 27.7982 12.268C27.6543 12.4448 27.4487 12.5605 27.2228 12.5916L27.1004 12.6H9.29631C9.06832 12.5999 8.84884 12.5133 8.68225 12.3576C8.51565 12.202 8.41435 11.9888 8.39881 11.7613C8.38327 11.5338 8.45465 11.3089 8.59853 11.132C8.74241 10.9552 8.94806 10.8395 9.17393 10.8084L9.29631 10.8ZM5.09689 0C6.25593 0 7.1966 0.9408 7.1966 2.1V5.0976C7.1966 5.65456 6.97538 6.1887 6.58161 6.58252C6.18784 6.97635 5.65377 7.1976 5.09689 7.1976H2.09971C1.54283 7.1976 1.00876 6.97635 0.614991 6.58252C0.221219 6.1887 0 5.65456 0 5.0976V2.1C0 0.9408 0.94067 0 2.09971 0H5.09689ZM5.09689 1.8H2.09971C2.02016 1.8 1.94386 1.83161 1.88761 1.88787C1.83135 1.94413 1.79975 2.02044 1.79975 2.1V5.0976C1.79975 5.2632 1.93413 5.3976 2.09971 5.3976H5.09689C5.17645 5.3976 5.25274 5.36599 5.309 5.30973C5.36525 5.25347 5.39685 5.17717 5.39685 5.0976V2.1C5.39685 2.02044 5.36525 1.94413 5.309 1.88787C5.25274 1.83161 5.17645 1.8 5.09689 1.8ZM9.29631 2.4H27.1004C27.3284 2.40007 27.5479 2.48669 27.7145 2.64237C27.8811 2.79804 27.9824 3.01116 27.9979 3.23866C28.0134 3.46615 27.9421 3.69107 27.7982 3.86796C27.6543 4.04485 27.4487 4.16052 27.2228 4.1916L27.1004 4.2H9.29631C9.06832 4.19993 8.84884 4.11331 8.68225 3.95763C8.51565 3.80196 8.41435 3.58884 8.39881 3.36134C8.38327 3.13385 8.45465 2.90893 8.59853 2.73204C8.74241 2.55515 8.94806 2.43948 9.17393 2.4084L9.29631 2.4Z" fill="white"/>
</svg>
