<svg width="124" height="172" viewBox="0 0 124 172" fill="none" xmlns="http://www.w3.org/2000/svg">
<path fill-rule="evenodd" clip-rule="evenodd" d="M43.0089 26.9437C41.6957 26.9437 40.5109 27.5285 39.6544 28.4674C38.798 29.4063 38.2555 30.6838 38.2698 32.0844V32.8078L56.8979 32.7463V32.0075C56.8979 30.6068 56.3555 29.3139 55.4847 28.3905C54.614 27.467 53.4292 26.8975 52.1302 26.8975L48.5045 26.9129H46.8487L43.0089 26.9437Z" fill="#F42F42"/>
<path fill-rule="evenodd" clip-rule="evenodd" d="M56.8977 37.2252L38.2839 37.3021V41.0731L38.341 55.9105L56.9548 55.8489L56.912 41.0115L56.8977 37.2252Z" fill="#F42F42"/>
<path fill-rule="evenodd" clip-rule="evenodd" d="M21.4835 24.4502C26.3939 26.4973 32.589 27.6517 36.229 28.1442L36.2433 28.0672L36.2861 27.9133L36.3004 27.8364L36.3146 27.7902V27.7594L36.3289 27.7132L36.3432 27.6824L36.3717 27.6055L36.386 27.5285L36.4003 27.4978L36.4146 27.4516L36.4288 27.39V27.3746L36.4574 27.2977V27.2823L36.4717 27.2361V27.2207L36.4859 27.1745L36.5145 27.0976V27.0822L36.5287 27.0206L36.543 26.9744L36.5573 26.9437L36.5858 26.8667L36.6001 26.8513L36.6572 26.682L36.6715 26.6666V26.6512L36.7 26.5897L36.7143 26.5743L36.7286 26.5127L36.7571 26.4665L36.8 26.3742L36.8285 26.3126L36.8428 26.2818L36.8571 26.251L36.8856 26.1741L37.0712 25.8047L37.0854 25.7893L37.1283 25.7277L37.1568 25.6662L37.1711 25.6354V25.62L37.2139 25.543L37.271 25.4661L37.2996 25.4199L37.3281 25.3737L37.3424 25.3583L37.3852 25.2968L37.3995 25.2814L37.4566 25.2044L37.4709 25.189L37.5137 25.1275L37.5565 25.0659L37.5708 25.0351L37.5993 25.0043L37.6421 24.9428L37.685 24.8812L37.6992 24.8658L37.7563 24.7888H37.7706L37.7849 24.7735L37.8277 24.7119V24.6965L37.8848 24.6195V24.6041L37.9419 24.5272L37.999 24.4502L38.0276 24.4194L38.0704 24.3733L38.1132 24.3117L38.1275 24.2963L38.1989 24.2194L38.2131 24.204L38.2559 24.1424L38.2702 24.127L38.313 24.0808L38.3416 24.0501L38.3987 23.9731L38.4415 23.9269L38.4701 23.8961L38.4843 23.8807L38.5272 23.8346L38.57 23.7884L38.5985 23.7576L38.6128 23.7422L38.6556 23.696L38.6699 23.6807L38.6985 23.6499L38.7413 23.6191L38.7841 23.5729L38.8269 23.5267L38.8697 23.4806L38.9126 23.4344L38.9411 23.4036L38.9554 23.3882L38.9982 23.342H39.0125L39.0553 23.3113L39.0839 23.2805L39.0981 23.2651L39.141 23.2189L39.1552 23.2035L39.1981 23.1727L39.2409 23.142L39.2552 23.1266L39.298 23.0804L39.3265 23.065L39.3551 23.0342L39.3979 22.988L39.455 22.9419H39.4693L39.5121 22.9111H39.5264L39.5835 22.8803L39.6263 22.8341L39.6691 22.8187L39.6834 22.8033L39.7405 22.7726L39.7548 22.7572L39.7976 22.7264L39.8404 22.6956L39.8547 22.6802L39.9118 22.6494L39.9546 22.6186H39.9689L40.026 22.5879L40.0831 22.5571L40.1116 22.5417L40.1402 22.5263L40.1973 22.4955L40.2401 22.4647L40.2829 22.4493L40.2972 22.4339L40.3543 22.4032L40.3686 22.3878L40.4114 22.357L40.4542 22.3262L40.4685 22.3108L40.5256 22.28L40.5684 22.2492H40.5827L40.6398 22.2185L40.6969 22.1877L40.7254 22.1723L40.754 22.1569L40.8111 22.1261L40.8682 22.0953L40.911 22.0799L40.9253 22.0645L40.9824 22.0338L41.0395 22.003L41.0966 21.9722L41.1537 21.9414H41.1679L41.2107 21.926L41.3249 21.8799H41.3392L41.3963 21.8645L41.4534 21.8337L41.4962 21.8183L41.5105 21.8029L41.5676 21.7875L41.6247 21.7721H41.639L41.6818 21.7567L41.7246 21.7413L41.7389 21.7259L41.8103 21.7105C40.1973 20.6331 38.6271 19.4634 37.114 18.1859C28.5208 10.9057 28.1211 -1.91543 23.5105 4.97997L16.9728 14.8613L16.8301 15.046C15.9736 16.0311 15.4455 16.9238 15.1885 17.7241C14.7888 18.9709 15.2028 20.0944 16.1021 21.0795C17.2726 22.3878 19.2139 23.5113 21.4835 24.4502Z" fill="#F42F42"/>
<path fill-rule="evenodd" clip-rule="evenodd" d="M57.1689 21.9876C55.6701 23.2805 54.1 24.4502 52.5012 25.543C53.843 25.974 55.0421 26.7589 56.0127 27.8056C57.0833 28.9445 57.8684 30.3913 58.2395 32.0228C61.8795 31.4995 68.0746 30.3144 72.9564 28.2365C75.2118 27.2669 77.1531 26.1433 78.3236 24.8504C79.2229 23.8499 79.6083 22.7418 79.2086 21.495C78.9517 20.6947 78.4235 19.8174 77.5528 18.8169L77.41 18.6322L70.6868 8.72009C66.0476 1.82469 65.7336 14.6458 57.1689 21.9876Z" fill="#F42F42"/>
<path fill-rule="evenodd" clip-rule="evenodd" d="M52.701 108.352L52.5583 60.3457H54.3711L57.9968 60.3303L80.4219 60.2533L80.5504 105.166C80.5504 106.012 80.2363 106.797 79.7082 107.351C79.1943 107.921 78.4663 108.275 77.6812 108.275L52.701 108.352ZM41.3101 108.398L41.1673 60.3918L48.9469 60.3611L49.0896 108.367L41.3101 108.398ZM55.6415 25.6532C54.6709 24.622 53.4718 23.8216 52.13 23.3907C53.7431 22.2979 55.299 21.1281 56.812 19.8352C65.3624 12.4935 65.6907 -0.327642 70.3299 6.53697L77.0531 16.4645L77.1959 16.6492C78.0666 17.6342 78.5948 18.527 78.8517 19.3119C79.2514 20.5586 78.8517 21.6822 77.9524 22.6673C76.7819 23.9755 74.8406 25.0991 72.5852 26.0688C67.6891 28.1466 61.494 29.3472 57.8684 29.8551C57.4829 28.239 56.6979 26.7922 55.6415 25.6532ZM57.9112 37.2276L82.8485 37.1353C83.6479 37.1353 84.3759 37.4893 84.904 38.0588C85.4322 38.6283 85.7605 39.4132 85.7748 40.2751L85.8033 52.6037L85.8176 55.7436L82.9056 55.759L57.9683 55.836L57.9254 40.9985L57.9112 37.2276ZM35.686 37.3046L54.314 37.243L54.3283 41.0139L54.3711 55.8513L35.743 55.9129L35.7002 41.0755L35.686 37.3046ZM35.6574 32.8257V32.0869C35.6574 30.6862 36.1856 29.4087 37.042 28.4699C37.8985 27.531 39.0833 26.9461 40.3965 26.9461L44.2363 26.9307H45.8921L49.5178 26.9153C50.8311 26.9153 52.0159 27.4848 52.8866 28.4083C53.7573 29.3318 54.2855 30.6093 54.2855 32.0253V32.7487L35.6574 32.8257ZM9.9635 81.1396L9.93495 69.0265L5.76683 69.0419L5.80965 81.155L9.9635 81.1396ZM10.0063 94.3763L9.97777 85.6185L5.80965 85.6339L5.8382 94.3917L10.0063 94.3763ZM44.6645 23.0367C41.4243 21.2205 38.3267 19.235 35.5147 16.8647C28.7486 11.139 26.6074 2.82762 24.1808 0.949853C22.2395 -0.543123 19.8699 -0.219901 16.7581 4.44372L10.1633 14.3251C8.97857 15.7103 8.22202 17.034 7.82234 18.2961C6.92305 21.1589 7.70814 23.5754 9.57809 25.6224C11.1625 27.3617 13.5464 28.7623 16.23 29.8859C19.3989 31.2096 23.0531 32.1792 26.2934 32.8411L7.32274 32.9026C5.38142 32.9026 3.61139 33.7799 2.3267 35.1652C1.042 36.5504 0.256913 38.459 0.271187 40.5676L0.285462 43.2611L4.43931 43.2457L4.42504 40.5522C4.42504 39.6903 4.75335 38.9053 5.2815 38.3358C5.80965 37.7663 6.53764 37.4123 7.33701 37.4123L32.0603 37.32L32.0745 41.0909L32.1174 55.9283L7.39411 56.0207L4.48213 56.036L4.46786 52.8962L4.45358 47.74L0.299736 47.7554L0.314011 52.9116L0.328285 58.2986L0.342559 60.5458L2.42662 60.5304L5.75255 60.515L5.76683 64.5476L9.92068 64.5322L9.9064 60.4996L32.1316 60.4226L35.743 60.4072H37.5559L37.6986 108.413L12.9183 108.506C12.1332 108.506 11.4195 108.167 10.8913 107.598C10.3775 107.028 10.0349 106.259 10.0349 105.412L10.0206 98.8552L5.85247 98.8706L5.88102 105.427C5.88102 107.521 6.68039 109.414 7.95081 110.784C9.2355 112.153 10.9913 113 12.9326 113L37.7129 112.908L41.3243 112.892L49.1039 112.861L52.7153 112.846L77.7098 112.754C79.6511 112.738 81.4068 111.892 82.6772 110.507C83.9477 109.137 84.7328 107.228 84.7185 105.15L84.59 60.2379L87.9159 60.2225L90 60.2071V57.96L89.9857 52.573L89.9429 40.229C89.9429 38.1357 89.1293 36.2272 87.8446 34.8419C86.5599 33.4721 84.7899 32.6102 82.8343 32.6256L63.8636 32.6871C67.1039 31.9945 70.7581 30.9941 73.9128 29.655C76.5964 28.516 78.9802 27.0846 80.5504 25.3454C82.406 23.2829 83.1768 20.8665 82.2633 18.0036C81.8493 16.7415 81.0928 15.4179 79.908 14.048L73.2419 4.21285C70.1015 -0.389208 67.7177 -0.697038 65.7906 0.811329C63.3783 2.70448 61.2942 11.0313 54.5567 16.8031C51.7732 19.2042 48.6756 21.2051 45.4496 23.0367H44.6645ZM32.2886 29.9474C28.6487 29.4549 22.4536 28.3159 17.5432 26.2535C15.2736 25.3146 13.3323 24.191 12.1618 22.8981C11.2625 21.9131 10.8485 20.7895 11.2482 19.5428C11.5051 18.7424 12.0333 17.8497 12.8897 16.8647L13.0325 16.6646L19.6844 6.72167C24.2807 -0.173727 24.6804 12.6474 33.2879 19.9276C34.8009 21.2051 36.3711 22.3594 37.9841 23.4522L37.9128 23.4676H37.8985L37.8557 23.483L37.7986 23.4984H37.7843L37.7272 23.5138L37.6701 23.5292L37.6415 23.5446L37.5987 23.56L37.5416 23.5908L37.4845 23.6061H37.4702L37.3561 23.6523L37.3132 23.6677H37.299L37.2419 23.6985L37.1848 23.7293L37.1277 23.7601L37.0706 23.7908L37.0563 23.8062L37.0135 23.8216L36.9564 23.8524L36.8993 23.8832L36.8707 23.8986L36.8422 23.914L36.7851 23.9448L36.728 23.9755L36.6852 24.0063L36.6281 24.0371H36.6138L36.571 24.0679L36.5281 24.0987L36.5139 24.1141L36.4568 24.1449L36.4282 24.1602L36.3854 24.1756L36.3283 24.2064L36.2712 24.2372L36.2427 24.2526L36.2141 24.268L36.157 24.2988L36.0999 24.3295L36.0856 24.3449L36.0428 24.3757L35.9857 24.4065H35.9714L35.9286 24.4373L35.8858 24.4681L35.8715 24.4835L35.8144 24.5142L35.8001 24.5296L35.7573 24.5604L35.7145 24.5912L35.6574 24.6374L35.6146 24.6682L35.5575 24.7143L35.5147 24.7605L35.4861 24.7913L35.4576 24.8067L35.4147 24.8529H35.4005L35.3576 24.8836L35.3148 24.9144L35.3005 24.9298L35.2434 24.976L35.2292 24.9914L35.2006 25.0222L35.1578 25.053H35.1435L35.1007 25.0991L35.0864 25.1145L35.0579 25.1453L35.0151 25.1915L34.958 25.2376H34.9437L34.9009 25.2838L34.858 25.33L34.8438 25.3454L34.8009 25.3762L34.7724 25.407L34.7581 25.4223L34.7153 25.4685L34.701 25.4839L34.6725 25.5147L34.6296 25.5609L34.5868 25.607L34.5725 25.6224L34.544 25.6532L34.5012 25.6994L34.4441 25.7764H34.4298L34.4013 25.8071L34.3584 25.8533L34.3442 25.8687L34.3013 25.9303L34.2871 25.9457L34.2157 26.0226L34.2014 26.038L34.1586 26.0996L34.1015 26.1611L34.0729 26.1919L34.0158 26.2689L33.9587 26.3458L33.9445 26.3612L33.8874 26.4382V26.4536L33.8446 26.5151L33.8303 26.5305L33.7732 26.6075L33.7589 26.6229L33.7161 26.6844L33.6733 26.746L33.6447 26.7768L33.6162 26.8076L33.5733 26.8691L33.5305 26.9307L33.5162 26.9615L33.4591 27.0385L33.4449 27.0538L33.402 27.1154L33.3878 27.1308L33.3592 27.177L33.3307 27.2232L33.2736 27.3001L33.2308 27.3771V27.3925L33.2165 27.4232L33.1879 27.4848L33.1451 27.5464L33.1308 27.5618L32.9453 27.9466L32.9167 28.0081L32.9024 28.0389L32.8882 28.0851L32.8596 28.1466L32.8168 28.239L32.8025 28.2852L32.7882 28.3467L32.774 28.3621L32.7454 28.4391V28.4545L32.7311 28.4699L32.6598 28.6392V28.6546L32.6312 28.7315L32.617 28.7623L32.6027 28.8085L32.5884 28.87V28.8854L32.5599 28.9624L32.5456 29.0086V29.024L32.5313 29.0701V29.0855L32.5028 29.1625V29.1779L32.4885 29.2394L32.4742 29.2856L32.4599 29.3164L32.4457 29.3934L32.4171 29.4703L32.4028 29.5011L32.3886 29.5473V29.5627L32.3743 29.6088L32.36 29.6858L32.3172 29.8397L32.2886 29.9474Z" fill="#373737"/>
<path fill-rule="evenodd" clip-rule="evenodd" d="M32.1173 55.9413L32.103 52.1242L10.4916 52.2011L4.46777 52.2165V52.8938L4.48205 56.0336L7.39402 56.0182L32.1173 55.9413Z" fill="#B4C1CF"/>
<path fill-rule="evenodd" clip-rule="evenodd" d="M57.9685 52.0319V55.849L82.9059 55.7566L85.8178 55.7412V52.6014L85.8036 51.9395L57.9685 52.0319Z" fill="#B4C1CF"/>
<path fill-rule="evenodd" clip-rule="evenodd" d="M50.3599 60.3587L42.5803 60.3895L42.7231 108.396L50.5026 108.365L50.3599 60.3587Z" fill="#F42F42"/>
<path fill-rule="evenodd" clip-rule="evenodd" d="M37.5841 68.9317L37.5555 60.4048H35.7427L32.1313 60.4201L9.90604 60.4971V64.5297L5.7522 64.5451L5.76647 69.0394L9.93459 69.024L20.4263 68.9778L37.5841 68.9317Z" fill="#B4C1CF"/>
<path fill-rule="evenodd" clip-rule="evenodd" d="M52.5583 60.3432L52.5869 68.8701L80.4505 68.7777L80.422 60.2508L57.9969 60.3278L54.3712 60.3432H52.5583Z" fill="#B4C1CF"/>
<path fill-rule="evenodd" clip-rule="evenodd" d="M36.157 103.393L11.3767 103.486C10.9199 103.486 10.4631 103.439 10.0349 103.347V105.41C10.0349 106.256 10.3632 107.026 10.8914 107.595C11.4195 108.165 12.1332 108.503 12.9183 108.503L37.6987 108.411L37.6844 103.393H36.157Z" fill="#B4C1CF"/>
<path fill-rule="evenodd" clip-rule="evenodd" d="M52.6874 103.332L52.7016 108.349L77.6961 108.257C78.4812 108.257 79.1949 107.903 79.7231 107.333C80.2369 106.779 80.5653 105.994 80.5653 105.148L80.551 101.546C79.3519 102.593 77.8246 103.224 76.1545 103.239L52.6874 103.332Z" fill="#B4C1CF"/>
<path d="M77.6426 59C92.3391 59 104.287 70.9483 104.287 85.6445C104.287 91.2427 102.561 96.593 99.3721 101.069C101.9 101.356 104.177 102.461 105.937 104.107C106.419 104.032 106.913 103.988 107.415 103.98L107.968 103.985C110.54 104.074 112.957 105.057 114.856 106.773L115.255 107.152L115.259 107.156L115.631 107.548C117.44 109.544 118.438 112.123 118.438 114.832V143.757C118.438 146.531 118.068 149.29 117.338 151.964L117.188 152.497C116.423 155.113 116.035 157.819 116.035 160.543C116.036 164.097 113.155 166.977 109.603 166.977H75.5566C72.0039 166.977 69.1242 164.097 69.124 160.544V156.559C68.6946 156.316 68.2492 156.048 67.7939 155.761L66.8906 155.175C64.4055 153.523 62.3925 151.261 61.0371 148.609L60.7744 148.074L55.0566 135.876L55.0576 135.875C53.0091 131.508 53.7083 126.328 56.8428 122.661L58.7021 120.482C58.648 120.043 58.6182 119.595 58.6182 119.146C58.6182 114.683 61.3112 110.851 65.1533 109.17C65.0307 109.112 64.9091 109.051 64.7891 108.984L64.7871 108.982C56.2851 104.291 51 95.3506 51 85.6445L51.0088 84.958C51.3741 70.5785 63.1765 59.0001 77.6426 59ZM97.207 117.358C96.0733 118.358 94.5855 118.966 92.9551 118.966C91.4226 118.966 90.0161 118.429 88.9111 117.534C88.1198 120.191 85.6597 122.128 82.7461 122.128C81.3345 122.128 80.0304 121.671 78.9697 120.9V131.293C78.9697 134.846 76.0898 137.725 72.5371 137.726C71.581 137.726 70.6741 137.516 69.8584 137.142L72.4238 142.613V142.614L72.5654 142.891C72.9166 143.524 73.4128 144.061 74.0117 144.459L74.6611 144.881C75.0477 145.125 75.3427 145.298 75.5469 145.41L75.7852 145.534L75.7881 145.535L76.1328 145.705C77.8356 146.582 79.2747 147.894 80.3047 149.516L80.5049 149.844C81.2745 151.154 81.7555 152.607 81.9229 154.11H103.672C103.948 152.349 104.336 150.605 104.838 148.889V148.888L105.01 148.26C105.383 146.789 105.572 145.278 105.572 143.758V120.896C104.829 121.197 104.016 121.364 103.165 121.364C100.471 121.364 98.1651 119.708 97.207 117.358Z" fill="#C5042B" stroke="white" stroke-width="10"/>
<path d="M77.6426 78.9092C81.3852 78.9092 84.4296 81.9537 84.4297 85.6963V103.15C85.4347 102.561 86.6051 102.224 87.8516 102.224C90.853 102.224 93.4037 104.183 94.2969 106.888C95.3746 106.167 96.6693 105.745 98.0605 105.745C100.811 105.745 103.183 107.391 104.248 109.747C105.183 109.121 106.295 108.748 107.488 108.729L107.801 108.732C109.356 108.785 110.794 109.412 111.899 110.515H111.9L112.11 110.735C113.13 111.86 113.688 113.304 113.688 114.832V143.757C113.688 146.108 113.375 148.446 112.756 150.712L112.628 151.165C111.737 154.213 111.285 157.368 111.285 160.543L111.276 160.716C111.19 161.564 110.474 162.227 109.603 162.227H75.5566C74.6273 162.227 73.8742 161.473 73.874 160.544V155.307C73.874 154.86 73.7632 154.424 73.5527 154.035L73.4561 153.871C73.1814 153.438 72.7926 153.096 72.3301 152.878V152.877C71.6123 152.539 70.6648 151.98 69.5195 151.219V151.218C67.7153 150.019 66.2515 148.376 65.2656 146.447L65.0752 146.058L59.3584 133.86C58.101 131.182 58.5304 127.998 60.4531 125.748L62.4043 123.462C63.1724 122.562 63.5475 121.391 63.4512 120.219L63.4258 119.984C63.3875 119.703 63.3682 119.421 63.3682 119.146C63.3682 115.761 66.1254 113.009 69.5137 113.009C69.9661 113.009 70.4135 113.043 70.8545 113.107V85.6963C70.8545 83.8837 71.5611 82.1786 72.8428 80.8965L73.0879 80.6631C74.3394 79.5297 75.9444 78.9093 77.6426 78.9092ZM77.6426 82.2754C76.7857 82.2754 75.9771 82.5875 75.3457 83.1592L75.2217 83.2773C74.5756 83.9235 74.2198 84.7819 74.2197 85.6963V131.293C74.2197 132.222 73.4665 132.975 72.5371 132.976C71.6077 132.976 70.8545 132.222 70.8545 131.293V116.533C70.4192 116.429 69.9708 116.374 69.5127 116.374C67.9799 116.374 66.7336 117.618 66.7334 119.145C66.7334 119.207 66.7358 119.27 66.7402 119.334L66.7607 119.529L66.8057 119.942C66.964 121.868 66.3999 123.789 65.2256 125.324L64.9639 125.647L63.0127 127.934H63.0117C62.0126 129.103 61.7409 130.727 62.2852 132.149L62.4053 132.431L68.123 144.63L68.2627 144.915C68.9861 146.331 70.0597 147.537 71.3828 148.416L72.1025 148.883C72.7849 149.315 73.3507 149.638 73.7637 149.832L73.958 149.928C74.9148 150.421 75.7208 151.156 76.2979 152.066H76.2969C76.9128 153.034 77.2402 154.155 77.2402 155.307V158.86H107.96C108.094 155.935 108.575 153.036 109.397 150.221L109.613 149.43C110.084 147.577 110.322 145.673 110.322 143.758V114.832L110.309 114.56C110.256 114.02 110.048 113.516 109.704 113.098L109.521 112.896C109.058 112.434 108.456 112.158 107.817 112.104L107.541 112.095C106.065 112.118 104.848 113.384 104.848 114.932C104.847 115.861 104.094 116.614 103.165 116.614C102.236 116.614 101.483 115.861 101.482 114.932L101.481 112.533L101.478 112.357C101.386 110.552 99.8878 109.112 98.0605 109.111C96.1741 109.111 94.6387 110.647 94.6387 112.533C94.6386 113.463 93.8845 114.216 92.9551 114.216C92.0258 114.216 91.2725 113.462 91.2725 112.533V109.012C91.2725 107.125 89.737 105.59 87.8506 105.59C85.9727 105.59 84.4433 107.112 84.4297 108.986V115.695C84.4296 116.625 83.6755 117.378 82.7461 117.378C81.8169 117.378 81.0636 116.625 81.0635 115.695L81.0645 85.6963L81.0596 85.5205C80.9676 83.7157 79.4698 82.2754 77.6426 82.2754ZM77.6426 63.75C89.7158 63.75 99.5369 73.5716 99.5371 85.6445C99.5371 91.3011 97.4043 96.6336 93.5195 100.72L93.1377 101.111C92.4809 101.769 91.4152 101.77 90.7578 101.113V101.112C90.1009 100.456 90.0995 99.3907 90.7559 98.7334L91.0791 98.4023C94.3675 94.9437 96.1719 90.4321 96.1719 85.6445C96.1717 75.4279 87.8593 67.1152 77.6426 67.1152C67.4273 67.1153 59.1154 75.4279 59.1152 85.6445C59.1152 92.3919 62.791 98.6121 68.708 101.877L68.8545 101.968C69.5558 102.453 69.7889 103.4 69.3682 104.163V104.164C69.0607 104.72 68.4859 105.033 67.8936 105.033C67.6869 105.033 67.4782 104.996 67.2783 104.917L67.082 104.824C60.0923 100.967 55.75 93.618 55.75 85.6445C55.7502 73.5717 65.5708 63.7501 77.6426 63.75ZM77.6426 71.2246C85.5936 71.2248 92.0623 77.6935 92.0625 85.6445C92.0625 88.7372 91.0567 91.7659 89.2197 94.2412L88.8418 94.7285C88.2562 95.4501 87.1962 95.5602 86.4746 94.9746V94.9756C85.7529 94.3901 85.6421 93.3302 86.2275 92.6084L86.5215 92.2295C87.946 90.3158 88.6963 88.05 88.6963 85.6445C88.6961 79.5498 83.7374 74.591 77.6426 74.5908C71.5479 74.5908 66.5881 79.5496 66.5879 85.6445C66.5879 88.2451 67.5095 90.772 69.1816 92.7588L69.2861 92.8965C69.7346 93.554 69.6584 94.4411 69.1045 95.0127L68.9785 95.1309C68.6633 95.3964 68.2781 95.5253 67.8955 95.5254C67.4764 95.5254 67.0591 95.3702 66.7383 95.0664L66.6074 94.9268C64.4248 92.3338 63.2227 89.0373 63.2227 85.6445C63.2229 77.6934 69.6916 71.2246 77.6426 71.2246Z" fill="#C5042B" stroke="#C5042B" stroke-width="0.5"/>
</svg>
