<svg width="27" height="27" viewBox="0 0 27 27" fill="none" xmlns="http://www.w3.org/2000/svg">
<path d="M13.5 7.94487V26M13.5 7.94487C12.9976 5.87465 12.1326 4.10479 11.0177 2.86606C9.90281 1.62734 8.58984 0.977264 7.25 1.00061C6.32911 1.00061 5.44594 1.36642 4.79477 2.01757C4.1436 2.66873 3.77778 3.55188 3.77778 4.47275C3.77778 5.39362 4.1436 6.27677 4.79477 6.92792C5.44594 7.57907 6.32911 7.94489 7.25 7.94489M13.5 7.94487C14.0024 5.87465 14.8674 4.10479 15.9823 2.86606C17.0972 1.62734 18.4102 0.977264 19.75 1.00061C20.6709 1.00061 21.5541 1.36642 22.2052 2.01757C22.8564 2.66873 23.2222 3.55188 23.2222 4.47275C23.2222 5.39362 22.8564 6.27677 22.2052 6.92792C21.5541 7.57907 20.6709 7.94489 19.75 7.94489M23.2222 13.5003V23.2223C23.2222 23.959 22.9296 24.6655 22.4086 25.1864C21.8877 25.7073 21.1812 26 20.4444 26H6.55556C5.81884 26 5.1123 25.7073 4.59137 25.1864C4.07044 24.6655 3.77778 23.959 3.77778 23.2223V13.5003M2.38889 7.94487H24.6111C25.3782 7.94487 26 8.56669 26 9.33373V12.1114C26 12.8785 25.3782 13.5003 24.6111 13.5003H2.38889C1.62183 13.5003 1 12.8785 1 12.1114V9.33373C1 8.56669 1.62183 7.94487 2.38889 7.94487Z" stroke="white" stroke-width="2" stroke-linecap="round" stroke-linejoin="round"/>
</svg>
