<svg width="24" height="26" viewBox="0 0 24 26" fill="none" xmlns="http://www.w3.org/2000/svg">
<path d="M22.5 10L12 1L1 10V24H9V15.5H16V24H22.5V10Z" fill="#FF8C77"/>
<path d="M10.0667 0.706245C10.6077 0.250146 11.2925 0 12 0C12.7075 0 13.3923 0.250146 13.9333 0.706245L22.9333 8.2977C23.6093 8.86853 24 9.70743 24 10.5917V23.666C24 24.285 23.7542 24.8787 23.3166 25.3164C22.879 25.7541 22.2855 26 21.6667 26H17C16.3812 26 15.7877 25.7541 15.3501 25.3164C14.9125 24.8787 14.6667 24.285 14.6667 23.666V16.3306C14.6667 16.2422 14.6315 16.1574 14.569 16.0949C14.5065 16.0323 14.4217 15.9972 14.3333 15.9972H9.66667C9.57826 15.9972 9.49348 16.0323 9.43096 16.0949C9.36845 16.1574 9.33333 16.2422 9.33333 16.3306V23.666C9.33333 24.285 9.0875 24.8787 8.64992 25.3164C8.21233 25.7541 7.61884 26 7 26H2.33333C2.02692 26 1.7235 25.9396 1.44041 25.8223C1.15731 25.705 0.900088 25.5331 0.683418 25.3164C0.466748 25.0997 0.294876 24.8424 0.177615 24.5592C0.0603536 24.276 0 23.9725 0 23.666V10.5917C0 9.70743 0.390667 8.86853 1.06667 8.2977L10.0667 0.706245ZM12.644 2.23601C12.4637 2.08421 12.2356 2.00097 12 2.00097C11.7644 2.00097 11.5363 2.08421 11.356 2.23601L2.356 9.82613C2.24463 9.91992 2.15506 10.0369 2.09357 10.1689C2.03208 10.3009 2.00015 10.4447 2 10.5903V23.6647C2 23.8487 2.14933 23.9981 2.33333 23.9981H7C7.08841 23.9981 7.17319 23.963 7.2357 23.9004C7.29821 23.8379 7.33333 23.7531 7.33333 23.6647V16.3293C7.33333 15.0396 8.37867 13.9953 9.66667 13.9953H14.3333C15.6213 13.9953 16.6667 15.0396 16.6667 16.3293V23.6647C16.6667 23.8487 16.816 23.9981 17 23.9981H21.6667C21.7551 23.9981 21.8399 23.963 21.9024 23.9004C21.9649 23.8379 22 23.7531 22 23.6647V10.5917C21.9999 10.4461 21.9679 10.3022 21.9064 10.1702C21.8449 10.0382 21.7554 9.92125 21.644 9.82747L12.644 2.23601Z" fill="#FF8C77"/>
</svg>
