<svg width="31" height="27" viewBox="0 0 31 27" fill="none" xmlns="http://www.w3.org/2000/svg">
<path d="M25.1875 25.0714H13.5625V17.3571H11.625V25.0714H5.81251V17.3571H3.87501V25.0714C3.87501 25.5829 4.07914 26.0735 4.44249 26.4351C4.80584 26.7968 5.29865 27 5.81251 27H25.1875C25.7013 27 26.1942 26.7968 26.5575 26.4351C26.9209 26.0735 27.125 25.5829 27.125 25.0714V17.3571H25.1875V25.0714Z" fill="white"/>
<path d="M30.7965 8.93893L26.8441 1.07036C26.6836 0.749045 26.4364 0.478643 26.13 0.289555C25.8237 0.100467 25.4704 0.000190391 25.11 0H5.89001C5.52955 0.000190391 5.1763 0.100467 4.86996 0.289555C4.56362 0.478643 4.31635 0.749045 4.15595 1.07036L0.203452 8.93893C0.0685019 9.20844 -0.00117055 9.50566 1.48771e-05 9.80679V12.7768C-0.000869616 13.2274 0.156795 13.6641 0.445639 14.0111C0.872527 14.4982 1.39976 14.8881 1.9915 15.1543C2.58325 15.4205 3.22564 15.5568 3.87501 15.5539C4.9346 15.5556 5.96187 15.1909 6.78126 14.5221C7.60064 15.1912 8.62769 15.5569 9.68751 15.5569C10.7473 15.5569 11.7744 15.1912 12.5938 14.5221C13.4131 15.1912 14.4402 15.5569 15.5 15.5569C16.5598 15.5569 17.5869 15.1912 18.4062 14.5221C19.2256 15.1912 20.2527 15.5569 21.3125 15.5569C22.3723 15.5569 23.3994 15.1912 24.2187 14.5221C25.1334 15.2697 26.3036 15.6351 27.4833 15.5416C28.6631 15.4481 29.7604 14.9029 30.5447 14.0207C30.837 13.6751 30.9982 13.2382 31 12.7864V9.80679C31.0012 9.50566 30.9315 9.20844 30.7965 8.93893ZM27.125 13.6254C26.7112 13.6244 26.3037 13.525 25.9363 13.3354C25.569 13.1459 25.2524 12.8717 25.0131 12.5357L24.2187 11.4557L23.4341 12.5357C23.1902 12.8666 22.8715 13.1356 22.5038 13.321C22.136 13.5065 21.7296 13.6031 21.3173 13.6031C20.9051 13.6031 20.4987 13.5065 20.1309 13.321C19.7632 13.1356 19.4445 12.8666 19.2006 12.5357L18.4062 11.4557L17.6216 12.5357C17.3777 12.8666 17.059 13.1356 16.6913 13.321C16.3235 13.5065 15.9171 13.6031 15.5048 13.6031C15.0926 13.6031 14.6862 13.5065 14.3184 13.321C13.9507 13.1356 13.632 12.8666 13.3881 12.5357L12.5938 11.4557L11.8091 12.5357C11.5652 12.8666 11.2465 13.1356 10.8788 13.321C10.511 13.5065 10.1046 13.6031 9.69235 13.6031C9.28011 13.6031 8.87367 13.5065 8.50593 13.321C8.13819 13.1356 7.81949 12.8666 7.57563 12.5357L6.78126 11.4557L5.98688 12.5357C5.74757 12.8717 5.43105 13.1459 5.06369 13.3354C4.69634 13.525 4.28879 13.6244 3.87501 13.6254C3.50992 13.6298 3.14812 13.5563 2.81392 13.41C2.47973 13.2636 2.1809 13.0477 1.93751 12.7768V9.80679L5.89001 1.92857H25.11L29.0625 9.79714V12.7479C28.8206 13.0226 28.5227 13.2429 28.1886 13.3942C27.8546 13.5455 27.492 13.6243 27.125 13.6254Z" fill="white"/>
</svg>
