<svg width="24" height="27" viewBox="0 0 24 27" fill="none" xmlns="http://www.w3.org/2000/svg">
<path d="M12 0.0996094C12.4469 0.0996094 12.885 0.218178 13.2715 0.441406L13.4346 0.543945C13.8583 0.833245 14.1871 1.24455 14.3789 1.72461L14.3975 1.77051L14.4453 1.7832C16.2737 2.2923 17.8998 3.35848 19.1064 4.83203L19.3428 5.13184C20.5691 6.76091 21.2333 8.75321 21.2334 10.8018V17.1719L21.25 17.1963L23.6924 20.9062C23.8164 21.0945 23.8876 21.3138 23.8984 21.54C23.9065 21.7096 23.8803 21.8782 23.8223 22.0361L23.7539 22.1904C23.6484 22.39 23.4913 22.5567 23.2998 22.6729C23.1563 22.7598 22.9975 22.8162 22.833 22.8389L22.667 22.8506H16.5332L16.5205 22.9355C16.3633 24.0366 15.8196 25.0436 14.9893 25.7715C14.1589 26.4993 13.0979 26.9004 12 26.9004C10.9021 26.9004 9.84106 26.4993 9.01074 25.7715C8.18038 25.0436 7.63668 24.0366 7.47949 22.9355L7.4668 22.8506H1.33301C1.1659 22.8505 1.0013 22.8152 0.848633 22.749L0.700195 22.6729C0.556714 22.5858 0.432529 22.4703 0.334961 22.334L0.246094 22.1904C0.140681 21.991 0.0907984 21.7661 0.101562 21.54C0.109703 21.3704 0.151716 21.2043 0.224609 21.0527L0.307617 20.9062L2.75 17.1963L2.7666 17.1719V10.8018C2.7666 6.49515 5.64301 2.86739 9.55469 1.7832L9.60254 1.77051L9.62109 1.72461C9.78896 1.30457 10.0617 0.937226 10.4111 0.658203L10.5654 0.543945C10.9893 0.254645 11.489 0.0996094 12 0.0996094ZM10.1133 22.8506V22.9502L10.0205 22.9834C10.1469 23.3457 10.3676 23.6657 10.6582 23.9102L10.7871 24.0107C11.1418 24.2648 11.5662 24.4014 12.001 24.4014C12.3813 24.4013 12.7535 24.2969 13.0781 24.1006L13.2139 24.0107C13.5685 23.7567 13.837 23.3977 13.9814 22.9834L14.0273 22.8506H10.1133ZM12 3.95215C10.3171 3.95215 8.69922 4.58674 7.45801 5.72461L7.21484 5.95898C5.94612 7.24355 5.2334 8.9857 5.2334 10.8018V17.5508L5.21973 17.7344C5.20195 17.8558 5.16697 17.974 5.11523 18.085L5.02637 18.2451L3.74219 20.1953L3.63965 20.3506H20.3584L20.2568 20.1953L18.9727 18.2451C18.8378 18.0395 18.7662 17.7978 18.7666 17.5508V10.8018C18.7666 9.09922 18.1402 7.46155 17.0166 6.20508L16.7852 5.95898C15.5163 4.67436 13.795 3.95215 12 3.95215Z" fill="white" stroke="#990820" stroke-width="0.2"/>
</svg>
