<svg width="23" height="27" viewBox="0 0 23 27" fill="none" xmlns="http://www.w3.org/2000/svg">
<path d="M11.499 20.5586C16.3144 20.5586 20.5236 22.6523 22.8457 25.7744L20.5645 26.876C18.6393 24.5921 15.2944 23.0869 11.499 23.0869C7.70362 23.087 4.35861 24.592 2.43359 26.876L0.152344 25.7734C2.47422 22.6508 6.68316 20.5587 11.499 20.5586ZM11.5 0.0996094C13.2445 0.0997903 14.9182 0.807602 16.1523 2.06738C17.3866 3.32733 18.08 5.03669 18.0801 6.81934V10.9111L18.0723 11.2354C18.001 12.7423 17.435 14.1811 16.4658 15.3193L16.252 15.5586C15.1523 16.7308 13.6771 17.4548 12.1016 17.6025L11.7852 17.624L11.498 17.6299C9.8629 17.6296 8.29001 17.0091 7.08301 15.8936L6.84668 15.6631C5.61236 14.4031 4.91797 12.6939 4.91797 10.9111V6.81934L4.92578 6.49609C4.99696 4.98873 5.56366 3.54963 6.5332 2.41113L6.74707 2.17188C7.92013 0.92148 9.52029 0.181542 11.2139 0.106445L11.2129 0.105469L11.5 0.0996094ZM11.499 2.62793C10.516 2.62795 9.56795 2.98718 8.8252 3.63672L8.67969 3.77051C7.96496 4.45842 7.51774 5.38304 7.41406 6.375L7.39746 6.57422V6.57715L7.39062 6.81641V10.9111L7.39551 11.1152C7.4399 12.0641 7.79888 12.97 8.41406 13.6836L8.5498 13.833C9.24774 14.5673 10.1832 15.0143 11.1787 15.0938L11.3789 15.1055C12.3816 15.1355 13.3574 14.7895 14.125 14.1387L14.2764 14.0049C15.0153 13.3136 15.4791 12.3723 15.585 11.3604L15.6016 11.1572V11.1543L15.6074 10.9141L15.5078 10.9111L15.6084 10.9141V6.81934C15.6083 5.77781 15.228 4.77581 14.5459 4.00684L14.4053 3.85645C13.6831 3.11925 12.7192 2.68425 11.7031 2.63281L11.499 2.62793Z" fill="white" stroke="#990820" stroke-width="0.2"/>
</svg>
